<?xml version="1.0" encoding="UTF-8"?>
<svg version="1.1" xmlns="http://www.w3.org/2000/svg" width="1024" height="1024">
<path d="M0 0 C337.92 0 675.84 0 1024 0 C1024 337.92 1024 675.84 1024 1024 C686.08 1024 348.16 1024 0 1024 C0 686.08 0 348.16 0 0 Z " fill="#F3F1ED" transform="translate(0,0)"/>
<path d="M0 0 C0.80953125 0.58652344 1.6190625 1.17304688 2.453125 1.77734375 C18.5983061 13.9931513 31.47196603 29.48553453 42.125 46.5625 C42.85456909 47.72434814 42.85456909 47.72434814 43.59887695 48.90966797 C44.26536255 50.00819092 44.26536255 50.00819092 44.9453125 51.12890625 C45.34250488 51.77931885 45.73969727 52.42973145 46.14892578 53.09985352 C47 55 47 55 47 59 C39.58214979 62.04238178 32.7283826 62.65182453 24.7355957 62.72070312 C22.69824099 62.74984636 20.66999774 62.84307821 18.63476562 62.9375 C8.06702715 63.06140118 2.71796545 59.99143666 -5 53 C-6.15316621 52.0910772 -7.31610773 51.1941351 -8.49609375 50.3203125 C-9.46675781 49.59585938 -10.43742187 48.87140625 -11.4375 48.125 C-26.5249405 37.27935453 -43.19940148 30.06664972 -61 25 C-62.76923828 24.49533203 -62.76923828 24.49533203 -64.57421875 23.98046875 C-103.30545768 14.11542295 -143.49293923 19.78860035 -177.87402344 39.70166016 C-183.29773144 43.01393383 -188.16963073 46.87352144 -193 51 C-194.44632813 52.22009766 -194.44632813 52.22009766 -195.921875 53.46484375 C-205.72100287 62.03231328 -213.43033316 71.79206059 -220 83 C-220.67160156 84.13179688 -221.34320313 85.26359375 -222.03515625 86.4296875 C-227.25790542 95.5271437 -230.6585963 104.78090214 -233 115 C-233.18618896 115.7950293 -233.37237793 116.59005859 -233.56420898 117.40917969 C-235.11446244 124.81234648 -235.33969777 132.13955565 -235.31567383 139.67773438 C-235.31252509 141.73361918 -235.33602485 143.78804286 -235.36132812 145.84375 C-235.51573495 177.97741872 -221.52604538 208.62057104 -200 232 C-199.54431641 232.5048291 -199.08863281 233.0096582 -198.61914062 233.52978516 C-188.53353936 244.60758768 -176.53541652 253.56612488 -163 260 C-163 260.66 -163 261.32 -163 262 C-166.97806279 262.50904763 -170.95759558 263.00557427 -174.9375 263.5 C-176.05447266 263.64308594 -177.17144531 263.78617188 -178.32226562 263.93359375 C-196.29539814 266.14729336 -196.29539814 266.14729336 -204.5625 261.5625 C-205.5844043 261.02061035 -205.5844043 261.02061035 -206.62695312 260.46777344 C-208.05180326 259.70693749 -209.47189618 258.93712857 -210.88720703 258.15869141 C-212.92166508 257.0429602 -214.9713962 255.96220709 -217.02734375 254.88671875 C-239.06937911 243.15946841 -256.60123765 227.28168526 -271 207 C-271.70125 206.0203125 -272.4025 205.040625 -273.125 204.03125 C-291.79616478 176.35791648 -298.66110784 137.39107152 -292.75 104.8125 C-292.21973962 102.19169841 -291.61768216 99.60327845 -291 97 C-290.70619359 95.65903742 -290.41323501 94.31788883 -290.12109375 92.9765625 C-283.63507025 64.25076215 -268.97782414 38.39758587 -248.38769531 17.42285156 C-247.09922881 16.1017427 -245.84116954 14.75116329 -244.5859375 13.3984375 C-183.12344957 -51.353013 -69.0318863 -51.77391473 0 0 Z " fill="#397A7A" transform="translate(621,353)"/>
<path d="M0 0 C0 0.66 0 1.32 0 2 C-1.10794922 2.83917969 -1.10794922 2.83917969 -2.23828125 3.6953125 C-5.43253251 6.36095358 -7.22926296 9.27917292 -9.1875 12.875 C-9.70086914 13.77412109 -9.70086914 13.77412109 -10.22460938 14.69140625 C-16.20704557 25.4017095 -16.61644536 37.48220411 -14.34765625 49.4375 C-9.75288722 63.32040729 0.86761814 70.56610521 13.375 76.9375 C28.06442038 84.15871888 43.44740845 89.54794377 58.875 94.9375 C94.34798222 107.33970989 130.72829556 120.37543549 148.56640625 156.140625 C153.45785514 167.29604874 155.54899973 178.09217379 155.4375 190.25 C155.42847656 191.43440674 155.41945313 192.61881348 155.41015625 193.83911133 C155.09649543 209.769378 150.60109096 222.12616407 143 236 C136.31826907 235.67876294 130.12376496 234.34804189 123.66235352 232.65771484 C109.65696528 229.05332757 95.35612038 226.67598333 81 225 C82.05884194 222.86261674 83.13731726 220.74076556 84.25390625 218.6328125 C87.65677524 212.13843627 87.65677524 212.13843627 89 205 C89.061875 204.12730469 89.12375 203.25460937 89.1875 202.35546875 C89.67110042 190.58282114 85.84028558 180.79886065 78 172 C63.1590093 158.03339888 42.59858758 152.26841598 23.77281189 145.75325012 C-32.22481161 126.37298117 -32.22481161 126.37298117 -52 107 C-52.69867188 106.33742188 -53.39734375 105.67484375 -54.1171875 104.9921875 C-62.72115989 96.18734416 -69.09387145 83.16039418 -71 71 C-71.15984375 69.99839844 -71.3196875 68.99679687 -71.484375 67.96484375 C-72.37958068 57.13022203 -67.17869667 49.3602698 -60.57470703 41.24951172 C-57.52873428 37.68713291 -54.30962296 34.31965212 -51 31 C-50.15695312 30.15179688 -49.31390625 29.30359375 -48.4453125 28.4296875 C-47.63835937 27.62789063 -46.83140625 26.82609375 -46 26 C-45.29101562 25.29359375 -44.58203125 24.5871875 -43.8515625 23.859375 C-33.86609508 14.3994585 -14.34653956 0 0 0 Z " fill="#357877" transform="translate(479,391)"/>
<path d="M0 0 C3.58729199 0.01135027 7.17428551 0.00464811 10.76156712 -0.0068922 C28.44837991 -0.05492436 45.95019158 0.5715052 63.5703125 2.26074219 C64.38555389 2.33608185 65.20079529 2.41142151 66.04074097 2.48904419 C79.40957615 3.72972855 92.45655393 6.43633872 105.5703125 9.26074219 C106.43527344 9.43943848 107.30023437 9.61813477 108.19140625 9.80224609 C131.34072802 14.63119462 163.34370582 23.50840503 178.19140625 43.43652344 C182.09037107 49.47826212 182.5703125 52.5527706 182.5703125 60.26074219 C66.4103125 60.26074219 -49.7496875 60.26074219 -169.4296875 60.26074219 C-168.10794444 48.36505469 -164.37357595 42.10533014 -155.3203125 34.42089844 C-126.06713792 12.56008014 -85.70790899 6.28568472 -50.4296875 2.26074219 C-49.69812439 2.17320679 -48.96656128 2.08567139 -48.21282959 1.9954834 C-32.1560129 0.11786348 -16.14127408 -0.05148511 0 0 Z " fill="#306D6C" transform="translate(497.4296875,626.7392578125)"/>
<path d="M0 0 C10.48396018 9.18203048 10.48396018 9.18203048 13.5 14.6875 C13.91894531 15.43128906 14.33789062 16.17507813 14.76953125 16.94140625 C15.6875 19.125 15.6875 19.125 15.6875 23.125 C8.26964979 26.16738178 1.4158826 26.77682453 -6.5769043 26.84570312 C-8.61425901 26.87484636 -10.64250226 26.96807821 -12.67773438 27.0625 C-23.24547285 27.18640118 -28.59453455 24.11643666 -36.3125 17.125 C-37.46566621 16.2160772 -38.62860773 15.3191351 -39.80859375 14.4453125 C-40.77925781 13.72085938 -41.74992188 12.99640625 -42.75 12.25 C-57.8374405 1.40435453 -74.51190148 -5.80835028 -92.3125 -10.875 C-93.49199219 -11.21144531 -94.67148437 -11.54789062 -95.88671875 -11.89453125 C-134.62089199 -21.76032443 -174.80887239 -16.0856916 -209.19091797 3.83105469 C-219.23067908 9.95426917 -227.81141624 18.06811702 -236.3125 26.125 C-236.8075 24.64 -236.8075 24.64 -237.3125 23.125 C-234.33952075 19.76663455 -231.33481285 16.43902343 -228.3125 13.125 C-227.7246875 12.46886719 -227.136875 11.81273437 -226.53125 11.13671875 C-170.50989076 -48.32231481 -61.59341657 -52.11340952 0 0 Z " fill="#205353" transform="translate(652.3125,388.875)"/>
<path d="M0 0 C0.6703125 0.29003906 1.340625 0.58007812 2.03125 0.87890625 C11.04724632 5.02279687 17.07247939 10.36899255 22 19 C22.37640625 19.61101562 22.7528125 20.22203125 23.140625 20.8515625 C25.35013113 26.37532783 24.89679673 33.87333034 23.27734375 39.51953125 C19.51043064 47.49562661 12.53750932 52.91928916 4.390625 55.98046875 C-3.78341564 58.43960809 -11.01643692 59.11593004 -19.1875 56.4375 C-24.58257135 54.66986016 -28.28424276 55.22406936 -33.734375 56.78125 C-34.70890625 57.0596875 -35.6834375 57.338125 -36.6875 57.625 C-37.59886719 57.90601563 -38.51023437 58.18703125 -39.44921875 58.4765625 C-42.07675577 59.0157508 -43.49972676 58.87831613 -46 58 C-45.57847656 57.40832031 -45.15695312 56.81664062 -44.72265625 56.20703125 C-44.17480469 55.41683594 -43.62695312 54.62664062 -43.0625 53.8125 C-42.51722656 53.03519531 -41.97195313 52.25789063 -41.41015625 51.45703125 C-39.91100132 48.84493027 -39.17090335 47.00789889 -39 44 C-40.0652538 42.18022871 -40.0652538 42.18022871 -41.75 40.6875 C-47.18496621 34.81015282 -48.67078411 28.76275535 -48.40625 20.8046875 C-47.28769987 13.08238949 -43.20470151 7.21712336 -37.13671875 2.47265625 C-26.4363509 -4.90218594 -11.82845085 -5.64760051 0 0 Z " fill="#E36B20" transform="translate(577,410)"/>
<path d="M0 0 C0 0.66 0 1.32 0 2 C-1.10794922 2.8353125 -1.10794922 2.8353125 -2.23828125 3.6875 C-5.4593674 6.3846471 -7.23330422 9.35826283 -9.1875 13 C-9.52974609 13.61617188 -9.87199219 14.23234375 -10.22460938 14.8671875 C-11.56890287 17.29996718 -12.87600062 19.71346756 -13.98046875 22.265625 C-15.32581206 24.554255 -16.85099704 25.4030296 -19.125 26.75 C-23.49520045 29.50343809 -26.86877708 32.68268073 -30.37109375 36.4609375 C-32 38 -32 38 -34 38 C-34 38.66 -34 39.32 -34 40 C-34.66 40 -35.32 40 -36 40 C-36 40.66 -36 41.32 -36 42 C-36.66 42 -37.32 42 -38 42 C-38.226875 42.515625 -38.45375 43.03125 -38.6875 43.5625 C-40.48217618 46.89547005 -42.49965015 50.14703671 -45 53 C-45.66 53 -46.32 53 -47 53 C-47.24878906 53.99386719 -47.49757813 54.98773438 -47.75390625 56.01171875 C-48.96253589 60.24139099 -50.88349684 63.94001436 -52.9375 67.8125 C-56.00839976 73.76348366 -58.35985616 79.48875226 -60 86 C-60.65629516 88.00342734 -61.31760646 90.00531118 -62 92 C-66.00206664 88.47681313 -67.265218 83.916446 -69 79 C-69.23074219 78.34773438 -69.46148437 77.69546875 -69.69921875 77.0234375 C-71.92901005 69.59079983 -72.81407966 61.39383929 -69.375 54.25 C-64.54554487 45.41242564 -58.07726237 38.09870862 -51 31 C-50.15695312 30.15179688 -49.31390625 29.30359375 -48.4453125 28.4296875 C-47.63835937 27.62789063 -46.83140625 26.82609375 -46 26 C-45.29101562 25.29359375 -44.58203125 24.5871875 -43.8515625 23.859375 C-33.86609508 14.3994585 -14.34653956 0 0 0 Z " fill="#2F7370" transform="translate(479,391)"/>
<path d="M0 0 C0.6703125 0.29003906 1.340625 0.58007812 2.03125 0.87890625 C10.18135319 4.62481906 16.16415339 9.44398968 21 17 C20.34 17.66 19.68 18.32 19 19 C18.39414062 18.52949219 17.78828125 18.05898438 17.1640625 17.57421875 C6.18634592 9.41693089 -5.42776876 6.71922729 -19.03955078 8.7043457 C-28.77859988 10.37692648 -36.12886046 13.83482521 -43 21 C-43.99 20.67 -44.98 20.34 -46 20 C-46.33 22.97 -46.66 25.94 -47 29 C-47.33 29 -47.66 29 -48 29 C-48.70011754 20.81640389 -47.78108283 14.800278 -43 8 C-32.21384318 -4.23994318 -14.69070082 -7.01420756 0 0 Z " fill="#ED8C38" transform="translate(577,410)"/>
<path d="M0 0 C0.66 0 1.32 0 2 0 C1.76436744 3.57960954 1.5267624 7.15907068 1.28515625 10.73828125 C1.09844014 13.50611029 0.91926528 16.27426154 0.74609375 19.04296875 C0.66488281 20.28691406 0.58367187 21.53085937 0.5 22.8125 C0.4278125 23.95332031 0.355625 25.09414063 0.28125 26.26953125 C0 29 0 29 -1 31 C-1.25591832 32.55541468 -1.45698414 34.12015202 -1.625 35.6875 C-1.72039062 36.51636719 -1.81578125 37.34523438 -1.9140625 38.19921875 C-2.01741892 41.5676985 -1.50531245 44.66920806 -1 48 C-0.71679153 51.92165062 -0.49827388 55.8437243 -0.28125 59.76953125 C-0.20937205 62.88788209 -0.20937205 62.88788209 1 65 C0.72057545 66.67654729 0.39171753 68.34608154 0 70 C-0.33 70 -0.66 70 -1 70 C-2.54427971 61.67888119 -3.59333446 53.45486037 -4 45 C-4.06574219 43.80632813 -4.13148438 42.61265625 -4.19921875 41.3828125 C-4.60033 27.41307585 -2.19627339 13.76029534 0 0 Z " fill="#265959" transform="translate(384,472)"/>
<path d="M0 0 C0 0.66 0 1.32 0 2 C-0.99 2.33 -1.98 2.66 -3 3 C-4.21440975 4.44416295 -5.42543408 5.89168094 -6.6015625 7.3671875 C-8.82286717 9.96077787 -11.2756817 11.94162618 -14 14 C-14.66 14 -15.32 14 -16 14 C-16.1546875 14.8971875 -16.1546875 14.8971875 -16.3125 15.8125 C-17.09824033 18.31258286 -17.96918853 19.37535082 -20 21 C-20.66 21 -21.32 21 -22 21 C-22.33 21.99 -22.66 22.98 -23 24 C-23.66 23.67 -24.32 23.34 -25 23 C-22.89052411 14.35114887 -15.94754613 8.18054017 -9 3 C-6.12192031 1.40607328 -3.3539221 0 0 0 Z " fill="#296667" transform="translate(446,410)"/>
<path d="M0 0 C9.50873362 9.21615721 9.50873362 9.21615721 10.5625 15.1875 C9.95109421 18.24452893 9.10964386 21.08718488 8 24 C5.2916555 21.63987122 4.14980073 19.40006885 2.875 16.0625 C2.54242188 15.20785156 2.20984375 14.35320312 1.8671875 13.47265625 C0.22950361 8.80304406 -0.09584559 4.98397068 0 0 Z " fill="#205956" transform="translate(409,459)"/>
<path d="M0 0 C0.66 0.33 1.32 0.66 2 1 C4.00067995 1.0863663 6.00431481 1.10706642 8.00683594 1.09765625 C9.26864685 1.09435303 10.53045776 1.0910498 11.83050537 1.08764648 C12.50703911 1.08352753 13.18357285 1.07940857 13.8806076 1.07516479 C15.99953722 1.06240872 18.11840424 1.0558868 20.23736572 1.05102539 C25.50381686 1.03764606 30.77020904 1.01352137 36.03662109 0.98962402 C40.48073242 0.96984806 44.92482112 0.95422123 49.36896515 0.94406128 C51.45058743 0.9376048 53.53211659 0.92509282 55.6137085 0.91235352 C57.52533783 0.90739868 57.52533783 0.90739868 59.47558594 0.90234375 C61.15198151 0.89448853 61.15198151 0.89448853 62.86224365 0.88647461 C65.98982154 0.99963174 68.92868413 1.41482216 72 2 C72 2.33 72 2.66 72 3 C47.91 3 23.82 3 -1 3 C-0.67 2.01 -0.34 1.02 0 0 Z " fill="#306061" transform="translate(329,684)"/>
<path d="M0 0 C5.38191955 3.58794636 8.49004873 8.69967012 12 14 C11.67 14.66 11.34 15.32 11 16 C0.45259327 7.55824616 0.45259327 7.55824616 -0.125 2.9375 C-0.063125 1.4834375 -0.063125 1.4834375 0 0 Z " fill="#468784" transform="translate(647,379)"/>
<path d="M0 0 C0.33 0 0.66 0 1 0 C1.02690844 2.62506802 1.04679404 5.24986173 1.0625 7.875 C1.07087891 8.62136719 1.07925781 9.36773437 1.08789062 10.13671875 C1.11328125 15.7734375 1.11328125 15.7734375 0 18 C-0.22467831 19.53668865 -0.40796805 21.07968054 -0.5625 22.625 C-0.64628906 23.44226563 -0.73007812 24.25953125 -0.81640625 25.1015625 C-0.87699219 25.72804688 -0.93757813 26.35453125 -1 27 C-1.33 27 -1.66 27 -2 27 C-2.24908976 17.76984056 -1.68944836 9.08078495 0 0 Z " fill="#133E3F" transform="translate(383,485)"/>
<path d="M0 0 C0 0.66 0 1.32 0 2 C-1.65002828 3.35386936 -3.3174387 4.68678142 -5 6 C-5.33 6.66 -5.66 7.32 -6 8 C-6.99 8 -7.98 8 -9 8 C-9 7.34 -9 6.68 -9 6 C-9.99 5.67 -10.98 5.34 -12 5 C-9.9330412 2.9330412 -8.69369158 2.35542451 -6 1.375 C-5.29875 1.11460937 -4.5975 0.85421875 -3.875 0.5859375 C-2 0 -2 0 0 0 Z " fill="#3D7976" transform="translate(479,391)"/>
<path d="M0 0 C0.66 0 1.32 0 2 0 C1.40816737 3.86484645 -0.42075631 6.08234694 -2.875 9.0625 C-3.57367188 9.91972656 -4.27234375 10.77695312 -4.9921875 11.66015625 C-6.59871979 13.53236022 -8.22135829 15.29407006 -10 17 C-8.51390706 12.82810366 -6.44697825 9.37146174 -4 5.6875 C-3.29875 4.61886719 -2.5975 3.55023438 -1.875 2.44921875 C-1.25625 1.64097656 -0.6375 0.83273437 0 0 Z " fill="#2E545A" transform="translate(412,415)"/>
<path d="M0 0 C0.66 0 1.32 0 2 0 C2.33 0.99 2.66 1.98 3 3 C3.99 3 4.98 3 6 3 C6.30192308 10.85 6.30192308 10.85 4 14 C3.01 14.33 2.02 14.66 1 15 C1.26876953 14.07767578 1.26876953 14.07767578 1.54296875 13.13671875 C1.86201172 11.92435547 1.86201172 11.92435547 2.1875 10.6875 C2.40792969 9.88699219 2.62835937 9.08648437 2.85546875 8.26171875 C2.90316406 7.51535156 2.95085938 6.76898438 3 6 C1.58590537 4.3775376 1.58590537 4.3775376 0 3 C0 2.01 0 1.02 0 0 Z " fill="#D54C19" transform="translate(535,448)"/>
<path d="M0 0 C0.99 0.33 1.98 0.66 3 1 C-3.15034169 8.48291572 -3.15034169 8.48291572 -7 11 C-6.40716379 7.60807637 -5.23256811 5.7892243 -2.9375 3.25 C-2.38964844 2.63640625 -1.84179688 2.0228125 -1.27734375 1.390625 C-0.85582031 0.93171875 -0.43429687 0.4728125 0 0 Z " fill="#1C464B" transform="translate(422,404)"/>
<path d="M0 0 C0.66 0.33 1.32 0.66 2 1 C1.67 1.99 1.34 2.98 1 4 C-1.64 4.33 -4.28 4.66 -7 5 C-4.88437775 2.67281553 -2.94982021 1.14186589 0 0 Z " fill="#D25421" transform="translate(538,464)"/>
<path d="M0 0 C0.66 0.33 1.32 0.66 2 1 C-4.14285714 6.57142857 -4.14285714 6.57142857 -9 7 C-6.03716687 4.61327331 -3.05729491 2.2646629 0 0 Z " fill="#DF5B1C" transform="translate(592,457)"/>
<path d="M0 0 C0.33 0 0.66 0 1 0 C1.22786458 2.01822917 1.45572917 4.03645833 1.68359375 6.0546875 C1.91292961 8.07404316 1.91292961 8.07404316 3 10 C2.72057545 11.67654729 2.39171753 13.34608154 2 15 C1.67 15 1.34 15 1 15 C-0.32286246 10.03926578 -0.08893197 5.08888488 0 0 Z " fill="#1E504F" transform="translate(382,527)"/>
<path d="M0 0 C0.33 1.32 0.66 2.64 1 4 C-3.625 6.125 -3.625 6.125 -7 5 C-4.69 3.35 -2.38 1.7 0 0 Z " fill="#3E7777" transform="translate(446,406)"/>
<path d="M0 0 C1.65 0.33 3.3 0.66 5 1 C2.37801226 3.15377564 0.35595828 4.40072174 -3 5 C-2.01 3.35 -1.02 1.7 0 0 Z " fill="#2A6666" transform="translate(465,396)"/>
</svg>
